# xmcd CD database file
#
# Track frame offsets:
#	150
#	11507
#	24336
#	36614
#	49538
#	61573
#	71813
#	83717
#	95439
#	106097
#	117186
#	129279
#	139701
#	152178
#	164706
#	176410
#	187365
#	197863
#	210126
#	219802
#	229889
#	243139
#	255188
#	264822
#	276429
#
# Disc length: 3887 seconds
#
# Revision: 1
# Processed by: cddbd v1.5.2PL0 Copyright (c) Steve Scherf et al.
# Submitted via: jetAudio 7
#
DISCID=4f0f2d19
DTITLE=Chet Atkins - The RCA Days Of Chet Atkins - The Nashville Jump -
DTITLE=Disc 1
DYEAR=2006
DGENRE=Country
TTITLE0=The Nashville Jump
TTITLE1=Barnyard Shuffle
TTITLE2=Ain'tcha Tired Of Makin' Me Blue
TTITLE3=Money, Marble And Chalk
TTITLE4=Centipede Boogie
TTITLE5=Main Street Breakdown
TTITLE6=Indian Love Call
TTITLE7=Rainbow
TTITLE8=Crazy Rhythm
TTITLE9=In The Mood
TTITLE10=Meet Mr. Callaghan
TTITLE11=Fiddle Patch
TTITLE12=When It's Darkness On The Delta
TTITLE13=Stompin' At The Savoy
TTITLE14=Indiana March
TTITLE15=Tennessee Rag
TTITLE16=My Little Gal
TTITLE17=I'm Casting My Lasso Towards The Sky
TTITLE18=Sunny Side Of The Mountain
TTITLE19=Country Gentleman
TTITLE20=Ballin' The Jack
TTITLE21=Honeysuckle Rose
TTITLE22=Memphis Blues
TTITLE23=Alabama Jubilee
TTITLE24=The Birth Of The Blues
EXTD=
EXTT0=
EXTT1=
EXTT2=
EXTT3=
EXTT4=
EXTT5=
EXTT6=
EXTT7=
EXTT8=
EXTT9=
EXTT10=
EXTT11=
EXTT12=
EXTT13=
EXTT14=
EXTT15=
EXTT16=
EXTT17=
EXTT18=
EXTT19=
EXTT20=
EXTT21=
EXTT22=
EXTT23=
EXTT24=
PLAYORDER=
